<svg xmlns="http://www.w3.org/2000/svg" enable-background="new 0 0 36 36" viewBox="0 0 36 36"><path fill="#EFEFEF" d="M27.417,3.914c-6.915,0.129-11.732-3.365-15.064-3.302S2.057,2.721,2.344,18.052s9.744,17.404,13.41,17.336C32.917,35.067,39.665,3.685,27.417,3.914z"/><rect width="1" height="2" x="2.937" y="24.227" fill="#A4AFC1" transform="rotate(-45.009 3.437 25.228)"/><rect width="1" height="2" x="7.002" y="28.293" fill="#A4AFC1" transform="rotate(-45.001 7.502 29.293)"/><rect width="2" height="1" x="2.26" y="28.793" fill="#A4AFC1" transform="rotate(-45.001 3.26 29.293)"/><path fill="#A4AFC1" d="M25.078,13.217c-0.827,0-1.5-0.673-1.5-1.5s0.673-1.5,1.5-1.5s1.5,0.673,1.5,1.5S25.905,13.217,25.078,13.217z M25.078,11.217c-0.276,0-0.5,0.224-0.5,0.5s0.224,0.5,0.5,0.5s0.5-0.224,0.5-0.5S25.354,11.217,25.078,11.217z"/><path fill="#2FDF84" d="M29.25,24.875V18c0-0.759-0.63-1.375-1.406-1.375h-3.188c-0.776,0-1.406,0.616-1.406,1.375v6.875c0,0.759,0.63,1.375,1.406,1.375h3.188C28.62,26.25,29.25,25.634,29.25,24.875z"/><path fill="#F3F3F1" d="M19.375 26.25c.759 0 1.375-.616 1.375-1.375v-13.75c0-.759-.616-1.375-1.375-1.375h-2.75c-.758 0-1.375.616-1.375 1.375v13.75c0 .759.617 1.375 1.375 1.375H19.375zM6.75 24.875c0 .759.631 1.375 1.406 1.375h3.188c.776 0 1.406-.616 1.406-1.375V15.25c0-.759-.63-1.375-1.406-1.375H8.156c-.775 0-1.406.616-1.406 1.375V24.875z"/><path fill="#00B871" d="M25.5,24.875V18c0-0.759,0.63-1.375,1.406-1.375h-2.25c-0.776,0-1.406,0.616-1.406,1.375v6.875c0,0.759,0.63,1.375,1.406,1.375h2.25C26.13,26.25,25.5,25.634,25.5,24.875z"/><path fill="#D5DBE1" d="M17.5 24.875v-13.75c0-.759.617-1.375 1.375-1.375h-2.25c-.758 0-1.375.616-1.375 1.375v13.75c0 .759.617 1.375 1.375 1.375h2.25C18.117 26.25 17.5 25.634 17.5 24.875zM9 24.875V15.25c0-.759.631-1.375 1.406-1.375h-2.25c-.775 0-1.406.616-1.406 1.375v9.625c0 .759.631 1.375 1.406 1.375h2.25C9.631 26.25 9 25.634 9 24.875z"/><path d="M27.844 27h-3.188c-1.189 0-2.156-.953-2.156-2.125V18c0-1.172.967-2.125 2.156-2.125h3.188C29.033 15.875 30 16.828 30 18v6.875C30 26.047 29.033 27 27.844 27zM24.656 17.375C24.294 17.375 24 17.655 24 18v6.875c0 .345.294.625.656.625h3.188c.362 0 .656-.28.656-.625V18c0-.345-.294-.625-.656-.625H24.656zM19.375 27h-2.75c-1.172 0-2.125-.953-2.125-2.125v-13.75C14.5 9.953 15.453 9 16.625 9h2.75c1.172 0 2.125.953 2.125 2.125v13.75C21.5 26.047 20.547 27 19.375 27zM16.625 10.5C16.28 10.5 16 10.78 16 11.125v13.75c0 .345.28.625.625.625h2.75C19.72 25.5 20 25.22 20 24.875v-13.75c0-.345-.28-.625-.625-.625H16.625zM11.344 27H8.156C6.967 27 6 26.047 6 24.875V15.25c0-1.172.967-2.125 2.156-2.125h3.188c1.189 0 2.156.953 2.156 2.125v9.625C13.5 26.047 12.533 27 11.344 27zM8.156 14.625c-.362 0-.656.28-.656.625v9.625c0 .345.294.625.656.625h3.188c.362 0 .656-.28.656-.625V15.25c0-.345-.294-.625-.656-.625H8.156z"/></svg>